<svg width="24" height="24" viewBox="0 0 24 24" fill="none" xmlns="http://www.w3.org/2000/svg">
<g clip-path="url(#clip0_7_365)">
<path d="M5.58661 7.72095H0.768566C0.554734 7.72095 0.38147 7.89429 0.38147 8.10804V23.5863C0.38147 23.8002 0.554734 23.9734 0.768566 23.9734H5.58661C5.80044 23.9734 5.9737 23.8002 5.9737 23.5863V8.10804C5.9737 7.89429 5.80044 7.72095 5.58661 7.72095Z" fill="#011627"/>
<path d="M3.1793 0.0263672C1.42622 0.0263672 0 1.45104 0 3.20219C0 4.95411 1.42622 6.37932 3.1793 6.37932C4.93099 6.37932 6.35605 4.95403 6.35605 3.20219C6.35613 1.45104 4.93099 0.0263672 3.1793 0.0263672Z" fill="#011627"/>
<path d="M17.8416 7.3363C15.9065 7.3363 14.476 8.16817 13.6084 9.11339V8.1081C13.6084 7.89434 13.4351 7.721 13.2213 7.721H8.60719C8.39336 7.721 8.22009 7.89434 8.22009 8.1081V23.5864C8.22009 23.8002 8.39336 23.9735 8.60719 23.9735H13.4147C13.6285 23.9735 13.8018 23.8002 13.8018 23.5864V15.9282C13.8018 13.3476 14.5028 12.3422 16.3017 12.3422C18.2608 12.3422 18.4165 13.954 18.4165 16.061V23.5865C18.4165 23.8003 18.5898 23.9736 18.8036 23.9736H23.6129C23.8268 23.9736 24 23.8003 24 23.5865V15.0964C24 11.2591 23.2683 7.3363 17.8416 7.3363Z" fill="#011627"/>
</g>
<defs>
<clipPath id="clip0_7_365">
<rect width="24" height="24" fill="white"/>
</clipPath>
</defs>
</svg>
